<?xml version="1.0" encoding="utf-8"?>
<svg width="1440" height="449" xmlns="http://www.w3.org/2000/svg">
  <defs>
    <path id="a" d="M0 0h1454v449H0z"/>
  </defs>
  <g transform="matrix(1, 0, 0, 1, 2131.7146, 717.255798)" fill="none" fill-rule="evenodd">
    <mask id="b" fill="#fff">
      <path d="M0 0h1454v449H0z" transform="matrix(1, 0, 0, 1, 0, 0)"/>
    </mask>
    <path d="M 14 413.954 C 104.836 408.595 190.206 363.579 270.111 278.908 C 389.968 151.9 364.01 105.164 563.005 148.686 C 762 192.207 745.05 163.699 873 63.13 C 1000.95 -37.44 1084 -14.424 1162 107.797 C 1240 230.019 1320.466 384.016 1457.034 416.46 C 1546.489 437.711 1538.03 1163.86 1456.091 2770.665 L 14 2770.665 L 14 413.956 L 14 413.954 Z" fill="#181F2B" mask="url(#b)"/>
  </g>
</svg>